<mxfile host="app.diagrams.net" modified="2022-04-21T10:25:02.284Z" agent="5.0 (Macintosh; Intel Mac OS X 10_15_7) AppleWebKit/537.36 (KHTML, like Gecko) Chrome/92.0.4515.159 Safari/537.36" etag="btwBdMfRTR0yUmJaYr4g" version="17.0.0" type="github">
  <diagram name="Page-1" id="13e1069c-82ec-6db2-03f1-153e76fe0fe0">
    <mxGraphModel dx="2286" dy="670" grid="1" gridSize="10" guides="1" tooltips="1" connect="1" arrows="1" fold="1" page="1" pageScale="1" pageWidth="1100" pageHeight="850" background="none" math="0" shadow="0">
      <root>
        <mxCell id="0" />
        <mxCell id="1" parent="0" />
        <mxCell id="TLK5XkgE6gAEmuYLz-ld-43" value="" style="rounded=0;whiteSpace=wrap;html=1;" vertex="1" parent="1">
          <mxGeometry x="-30" y="490" width="990" height="260" as="geometry" />
        </mxCell>
        <mxCell id="TLK5XkgE6gAEmuYLz-ld-28" value="" style="rounded=0;whiteSpace=wrap;html=1;" vertex="1" parent="1">
          <mxGeometry x="-30" y="160" width="990" height="290" as="geometry" />
        </mxCell>
        <mxCell id="7baba1c4bc27f4b0-2" value="微信" style="shape=umlLifeline;perimeter=lifelinePerimeter;whiteSpace=wrap;html=1;container=1;collapsible=0;recursiveResize=0;outlineConnect=0;rounded=1;shadow=0;comic=0;labelBackgroundColor=none;strokeWidth=1;fontFamily=Verdana;fontSize=12;align=center;" parent="1" vertex="1">
          <mxGeometry x="510" y="80" width="100" height="720" as="geometry" />
        </mxCell>
        <mxCell id="7baba1c4bc27f4b0-10" value="" style="html=1;points=[];perimeter=orthogonalPerimeter;rounded=0;shadow=0;comic=0;labelBackgroundColor=none;strokeWidth=1;fontFamily=Verdana;fontSize=12;align=center;" parent="7baba1c4bc27f4b0-2" vertex="1">
          <mxGeometry x="45" y="480" width="10" height="30" as="geometry" />
        </mxCell>
        <mxCell id="TLK5XkgE6gAEmuYLz-ld-32" value="跳转到微信登录" style="html=1;verticalAlign=bottom;endArrow=block;labelBackgroundColor=none;fontFamily=Verdana;fontSize=12;edgeStyle=elbowEdgeStyle;elbow=vertical;" edge="1" parent="7baba1c4bc27f4b0-2" source="7baba1c4bc27f4b0-8">
          <mxGeometry relative="1" as="geometry">
            <mxPoint x="-190" y="480" as="sourcePoint" />
            <mxPoint x="45" y="480" as="targetPoint" />
            <Array as="points">
              <mxPoint x="-109.5" y="480" />
              <mxPoint x="-119.5" y="470" />
              <mxPoint x="-9.5" y="497" />
            </Array>
          </mxGeometry>
        </mxCell>
        <mxCell id="TLK5XkgE6gAEmuYLz-ld-33" value="" style="html=1;points=[];perimeter=orthogonalPerimeter;" vertex="1" parent="7baba1c4bc27f4b0-2">
          <mxGeometry x="45" y="530" width="10" height="30" as="geometry" />
        </mxCell>
        <mxCell id="TLK5XkgE6gAEmuYLz-ld-34" value="登录验证" style="edgeStyle=orthogonalEdgeStyle;html=1;align=left;spacingLeft=2;endArrow=block;rounded=0;entryX=1;entryY=0;" edge="1" target="TLK5XkgE6gAEmuYLz-ld-33" parent="7baba1c4bc27f4b0-2">
          <mxGeometry relative="1" as="geometry">
            <mxPoint x="50" y="510" as="sourcePoint" />
            <Array as="points">
              <mxPoint x="80" y="510" />
            </Array>
          </mxGeometry>
        </mxCell>
        <mxCell id="TLK5XkgE6gAEmuYLz-ld-36" value="验证成功" style="html=1;verticalAlign=bottom;endArrow=open;dashed=1;endSize=8;labelBackgroundColor=none;fontFamily=Verdana;fontSize=12;edgeStyle=elbowEdgeStyle;elbow=vertical;" edge="1" parent="7baba1c4bc27f4b0-2" target="7baba1c4bc27f4b0-8">
          <mxGeometry relative="1" as="geometry">
            <mxPoint x="-175" y="560" as="targetPoint" />
            <Array as="points">
              <mxPoint x="-134.5" y="560" />
              <mxPoint x="-4.5" y="560" />
              <mxPoint x="-89.5" y="560" />
              <mxPoint x="-59.5" y="560" />
            </Array>
            <mxPoint x="55" y="560" as="sourcePoint" />
          </mxGeometry>
        </mxCell>
        <mxCell id="7baba1c4bc27f4b0-3" value="短信平台" style="shape=umlLifeline;perimeter=lifelinePerimeter;whiteSpace=wrap;html=1;container=1;collapsible=0;recursiveResize=0;outlineConnect=0;rounded=1;shadow=0;comic=0;labelBackgroundColor=none;strokeWidth=1;fontFamily=Verdana;fontSize=12;align=center;" parent="1" vertex="1">
          <mxGeometry x="800" y="80" width="100" height="720" as="geometry" />
        </mxCell>
        <mxCell id="7baba1c4bc27f4b0-13" value="" style="html=1;points=[];perimeter=orthogonalPerimeter;rounded=0;shadow=0;comic=0;labelBackgroundColor=none;strokeWidth=1;fontFamily=Verdana;fontSize=12;align=center;" parent="7baba1c4bc27f4b0-3" vertex="1">
          <mxGeometry x="45" y="120" width="10" height="40" as="geometry" />
        </mxCell>
        <mxCell id="TLK5XkgE6gAEmuYLz-ld-14" value="" style="html=1;points=[];perimeter=orthogonalPerimeter;rounded=0;shadow=0;comic=0;labelBackgroundColor=none;strokeWidth=1;fontFamily=Verdana;fontSize=12;align=center;" vertex="1" parent="7baba1c4bc27f4b0-3">
          <mxGeometry x="45" y="200" width="10" height="40" as="geometry" />
        </mxCell>
        <mxCell id="TLK5XkgE6gAEmuYLz-ld-16" value="" style="html=1;points=[];perimeter=orthogonalPerimeter;" vertex="1" parent="7baba1c4bc27f4b0-3">
          <mxGeometry x="45" y="260" width="10" height="20" as="geometry" />
        </mxCell>
        <mxCell id="TLK5XkgE6gAEmuYLz-ld-17" value="校验验证码" style="edgeStyle=orthogonalEdgeStyle;html=1;align=left;spacingLeft=2;endArrow=block;rounded=0;entryX=1;entryY=0;" edge="1" target="TLK5XkgE6gAEmuYLz-ld-16" parent="7baba1c4bc27f4b0-3">
          <mxGeometry relative="1" as="geometry">
            <mxPoint x="50" y="240" as="sourcePoint" />
            <Array as="points">
              <mxPoint x="80" y="240" />
            </Array>
          </mxGeometry>
        </mxCell>
        <mxCell id="TLK5XkgE6gAEmuYLz-ld-18" value="返回验证成功" style="html=1;verticalAlign=bottom;endArrow=open;dashed=1;endSize=8;labelBackgroundColor=none;fontFamily=Verdana;fontSize=12;edgeStyle=elbowEdgeStyle;elbow=vertical;entryX=1.2;entryY=0.758;entryDx=0;entryDy=0;entryPerimeter=0;" edge="1" parent="7baba1c4bc27f4b0-3" target="TLK5XkgE6gAEmuYLz-ld-11">
          <mxGeometry relative="1" as="geometry">
            <mxPoint x="-755" y="280" as="targetPoint" />
            <Array as="points">
              <mxPoint x="-374.5" y="280" />
              <mxPoint x="-244.5" y="280" />
              <mxPoint x="-329.5" y="280" />
              <mxPoint x="-299.5" y="280" />
            </Array>
            <mxPoint x="45" y="280" as="sourcePoint" />
          </mxGeometry>
        </mxCell>
        <mxCell id="7baba1c4bc27f4b0-8" value="学生子系统" style="shape=umlLifeline;perimeter=lifelinePerimeter;whiteSpace=wrap;html=1;container=1;collapsible=0;recursiveResize=0;outlineConnect=0;rounded=1;shadow=0;comic=0;labelBackgroundColor=none;strokeWidth=1;fontFamily=Verdana;fontSize=12;align=center;" parent="1" vertex="1">
          <mxGeometry x="240" y="80" width="100" height="720" as="geometry" />
        </mxCell>
        <mxCell id="7baba1c4bc27f4b0-9" value="" style="html=1;points=[];perimeter=orthogonalPerimeter;rounded=0;shadow=0;comic=0;labelBackgroundColor=none;strokeWidth=1;fontFamily=Verdana;fontSize=12;align=center;" parent="7baba1c4bc27f4b0-8" vertex="1">
          <mxGeometry x="45" y="100" width="10" height="40" as="geometry" />
        </mxCell>
        <mxCell id="TLK5XkgE6gAEmuYLz-ld-11" value="" style="html=1;points=[];perimeter=orthogonalPerimeter;rounded=0;shadow=0;comic=0;labelBackgroundColor=none;strokeWidth=1;fontFamily=Verdana;fontSize=12;align=center;" vertex="1" parent="7baba1c4bc27f4b0-8">
          <mxGeometry x="45" y="190" width="10" height="100" as="geometry" />
        </mxCell>
        <mxCell id="TLK5XkgE6gAEmuYLz-ld-19" value="" style="html=1;points=[];perimeter=orthogonalPerimeter;" vertex="1" parent="7baba1c4bc27f4b0-8">
          <mxGeometry x="45" y="310" width="10" height="30" as="geometry" />
        </mxCell>
        <mxCell id="TLK5XkgE6gAEmuYLz-ld-20" value="绑定手机号" style="edgeStyle=orthogonalEdgeStyle;html=1;align=left;spacingLeft=2;endArrow=block;rounded=0;entryX=1;entryY=0;" edge="1" target="TLK5XkgE6gAEmuYLz-ld-19" parent="7baba1c4bc27f4b0-8">
          <mxGeometry relative="1" as="geometry">
            <mxPoint x="50" y="290" as="sourcePoint" />
            <Array as="points">
              <mxPoint x="80" y="290" />
            </Array>
          </mxGeometry>
        </mxCell>
        <mxCell id="TLK5XkgE6gAEmuYLz-ld-30" value="" style="html=1;points=[];perimeter=orthogonalPerimeter;rounded=0;shadow=0;comic=0;labelBackgroundColor=none;strokeWidth=1;fontFamily=Verdana;fontSize=12;align=center;" vertex="1" parent="7baba1c4bc27f4b0-8">
          <mxGeometry x="45" y="470" width="10" height="100" as="geometry" />
        </mxCell>
        <mxCell id="TLK5XkgE6gAEmuYLz-ld-37" value="" style="html=1;points=[];perimeter=orthogonalPerimeter;" vertex="1" parent="7baba1c4bc27f4b0-8">
          <mxGeometry x="45" y="590" width="10" height="30" as="geometry" />
        </mxCell>
        <mxCell id="TLK5XkgE6gAEmuYLz-ld-38" value="绑定openid" style="edgeStyle=orthogonalEdgeStyle;html=1;align=left;spacingLeft=2;endArrow=block;rounded=0;entryX=1;entryY=0;" edge="1" parent="7baba1c4bc27f4b0-8" target="TLK5XkgE6gAEmuYLz-ld-37">
          <mxGeometry relative="1" as="geometry">
            <mxPoint x="50" y="570" as="sourcePoint" />
            <Array as="points">
              <mxPoint x="80" y="570" />
            </Array>
          </mxGeometry>
        </mxCell>
        <mxCell id="TLK5XkgE6gAEmuYLz-ld-39" value="返回绑定成功" style="html=1;verticalAlign=bottom;endArrow=open;dashed=1;endSize=8;labelBackgroundColor=none;fontFamily=Verdana;fontSize=12;edgeStyle=elbowEdgeStyle;elbow=vertical;" edge="1" parent="7baba1c4bc27f4b0-8">
          <mxGeometry relative="1" as="geometry">
            <mxPoint x="-185" y="619" as="targetPoint" />
            <Array as="points">
              <mxPoint x="-144.5" y="619" />
              <mxPoint x="-14.5" y="619" />
              <mxPoint x="-99.5" y="619" />
              <mxPoint x="-69.5" y="619" />
            </Array>
            <mxPoint x="45" y="619" as="sourcePoint" />
          </mxGeometry>
        </mxCell>
        <mxCell id="7baba1c4bc27f4b0-11" value="请求短信验证码" style="html=1;verticalAlign=bottom;endArrow=block;labelBackgroundColor=none;fontFamily=Verdana;fontSize=12;edgeStyle=elbowEdgeStyle;elbow=vertical;" parent="1" source="7baba1c4bc27f4b0-9" target="7baba1c4bc27f4b0-3" edge="1">
          <mxGeometry relative="1" as="geometry">
            <mxPoint x="360" y="190" as="sourcePoint" />
            <mxPoint x="520" y="220" as="targetPoint" />
            <Array as="points">
              <mxPoint x="500" y="200" />
              <mxPoint x="530" y="230" />
              <mxPoint x="510" y="230" />
              <mxPoint x="340" y="280" />
            </Array>
          </mxGeometry>
        </mxCell>
        <mxCell id="TLK5XkgE6gAEmuYLz-ld-5" value="" style="shape=umlLifeline;participant=umlActor;perimeter=lifelinePerimeter;whiteSpace=wrap;html=1;container=1;collapsible=0;recursiveResize=0;verticalAlign=top;spacingTop=36;outlineConnect=0;" vertex="1" parent="1">
          <mxGeometry x="40" y="80" width="20" height="720" as="geometry" />
        </mxCell>
        <mxCell id="TLK5XkgE6gAEmuYLz-ld-10" value="" style="html=1;points=[];perimeter=orthogonalPerimeter;" vertex="1" parent="TLK5XkgE6gAEmuYLz-ld-5">
          <mxGeometry x="5" y="90" width="10" height="270" as="geometry" />
        </mxCell>
        <mxCell id="TLK5XkgE6gAEmuYLz-ld-29" value="" style="html=1;points=[];perimeter=orthogonalPerimeter;" vertex="1" parent="TLK5XkgE6gAEmuYLz-ld-5">
          <mxGeometry x="5" y="450" width="10" height="190" as="geometry" />
        </mxCell>
        <mxCell id="TLK5XkgE6gAEmuYLz-ld-6" value="绑定手机号" style="html=1;verticalAlign=bottom;endArrow=block;labelBackgroundColor=none;fontFamily=Verdana;fontSize=12;edgeStyle=elbowEdgeStyle;elbow=vertical;" edge="1" parent="1" source="TLK5XkgE6gAEmuYLz-ld-5" target="7baba1c4bc27f4b0-8">
          <mxGeometry relative="1" as="geometry">
            <mxPoint x="70" y="190" as="sourcePoint" />
            <mxPoint x="210" y="200" as="targetPoint" />
            <Array as="points">
              <mxPoint x="130" y="180" />
              <mxPoint x="120" y="170" />
              <mxPoint x="230" y="197" />
            </Array>
          </mxGeometry>
        </mxCell>
        <mxCell id="TLK5XkgE6gAEmuYLz-ld-7" value="返回验证码" style="html=1;verticalAlign=bottom;endArrow=open;dashed=1;endSize=8;labelBackgroundColor=none;fontFamily=Verdana;fontSize=12;edgeStyle=elbowEdgeStyle;elbow=vertical;" edge="1" parent="1" source="7baba1c4bc27f4b0-3" target="TLK5XkgE6gAEmuYLz-ld-5">
          <mxGeometry relative="1" as="geometry">
            <mxPoint x="300" y="240" as="targetPoint" />
            <Array as="points">
              <mxPoint x="430" y="240" />
              <mxPoint x="560" y="240" />
              <mxPoint x="475" y="240" />
              <mxPoint x="505" y="240" />
            </Array>
            <mxPoint x="530" y="240" as="sourcePoint" />
          </mxGeometry>
        </mxCell>
        <mxCell id="TLK5XkgE6gAEmuYLz-ld-13" value="填写验证码" style="html=1;verticalAlign=bottom;endArrow=block;labelBackgroundColor=none;fontFamily=Verdana;fontSize=12;edgeStyle=elbowEdgeStyle;elbow=vertical;" edge="1" parent="1">
          <mxGeometry relative="1" as="geometry">
            <mxPoint x="50" y="270" as="sourcePoint" />
            <mxPoint x="290" y="270" as="targetPoint" />
            <Array as="points">
              <mxPoint x="130.5" y="270" />
              <mxPoint x="120.5" y="260" />
              <mxPoint x="230.5" y="287" />
            </Array>
          </mxGeometry>
        </mxCell>
        <mxCell id="TLK5XkgE6gAEmuYLz-ld-15" value="请求校验验证码" style="html=1;verticalAlign=bottom;endArrow=block;labelBackgroundColor=none;fontFamily=Verdana;fontSize=12;edgeStyle=elbowEdgeStyle;elbow=vertical;" edge="1" parent="1" target="7baba1c4bc27f4b0-3">
          <mxGeometry relative="1" as="geometry">
            <mxPoint x="290" y="280" as="sourcePoint" />
            <mxPoint x="530" y="280" as="targetPoint" />
            <Array as="points">
              <mxPoint x="370.5" y="280" />
              <mxPoint x="360.5" y="270" />
              <mxPoint x="470.5" y="297" />
            </Array>
          </mxGeometry>
        </mxCell>
        <mxCell id="TLK5XkgE6gAEmuYLz-ld-21" value="返回绑定成功" style="html=1;verticalAlign=bottom;endArrow=open;dashed=1;endSize=8;labelBackgroundColor=none;fontFamily=Verdana;fontSize=12;edgeStyle=elbowEdgeStyle;elbow=vertical;" edge="1" parent="1" target="TLK5XkgE6gAEmuYLz-ld-10">
          <mxGeometry relative="1" as="geometry">
            <mxPoint x="60" y="420" as="targetPoint" />
            <Array as="points">
              <mxPoint x="95.5" y="420" />
              <mxPoint x="225.5" y="420" />
              <mxPoint x="140.5" y="420" />
              <mxPoint x="170.5" y="420" />
            </Array>
            <mxPoint x="285" y="420" as="sourcePoint" />
          </mxGeometry>
        </mxCell>
        <mxCell id="TLK5XkgE6gAEmuYLz-ld-23" value="&lt;b&gt;手机号&lt;/b&gt;" style="text;html=1;strokeColor=#82b366;fillColor=#d5e8d4;align=center;verticalAlign=middle;whiteSpace=wrap;rounded=0;" vertex="1" parent="1">
          <mxGeometry x="-30" y="160" width="60" height="30" as="geometry" />
        </mxCell>
        <mxCell id="TLK5XkgE6gAEmuYLz-ld-31" value="绑定微信" style="html=1;verticalAlign=bottom;endArrow=block;labelBackgroundColor=none;fontFamily=Verdana;fontSize=12;edgeStyle=elbowEdgeStyle;elbow=vertical;" edge="1" parent="1">
          <mxGeometry relative="1" as="geometry">
            <mxPoint x="55" y="550" as="sourcePoint" />
            <mxPoint x="290" y="550" as="targetPoint" />
            <Array as="points">
              <mxPoint x="135.5" y="550" />
              <mxPoint x="125.5" y="540" />
              <mxPoint x="235.5" y="567" />
            </Array>
          </mxGeometry>
        </mxCell>
        <mxCell id="TLK5XkgE6gAEmuYLz-ld-44" value="&lt;b&gt;微信&lt;/b&gt;" style="text;html=1;strokeColor=#82b366;fillColor=#d5e8d4;align=center;verticalAlign=middle;whiteSpace=wrap;rounded=0;" vertex="1" parent="1">
          <mxGeometry x="-30" y="490" width="60" height="30" as="geometry" />
        </mxCell>
      </root>
    </mxGraphModel>
  </diagram>
</mxfile>
